<?xml version="1.0" encoding="UTF-8"?>
<svg xmlns="http://www.w3.org/2000/svg" width="150" height="50" viewBox="0 0 150 50" fill="none">
  <path d="M6.64004 10.082L7.4406 11.5857C7.62059 11.8631 7.81557 12.1088 8.04524 12.3375C8.71858 13.0024 9.34622 13.7121 9.92385 14.4617C11.2803 16.2428 12.1952 18.2208 12.8486 20.36C13.2405 21.6668 13.4533 23.0073 13.4692 24.3628C13.5348 28.4154 12.1456 31.8951 9.34452 34.7871C8.8889 35.2457 8.39669 35.6664 7.87276 36.0451C7.59528 36.0451 7.46404 35.8323 7.34967 35.6364C7.1414 35.2731 7.00279 34.8741 6.94095 34.4599C6.84252 33.9696 6.77784 33.4793 6.80971 32.9731V32.7444C6.78721 32.6957 6.54254 10.1973 6.64004 10.082Z" fill="#599636"></path>
  <path d="M6.64364 10.0323C6.61083 9.96663 6.57802 10.0163 6.54521 10.0482C6.56115 10.3763 6.44678 10.6688 6.26773 10.9481C6.07087 11.2256 5.81026 11.4384 5.54872 11.6671C4.09571 12.9252 2.95204 14.4447 2.03617 16.1443C0.817511 18.4316 0.189433 20.883 0.0113211 23.4637C-0.0702353 24.3946 0.305674 27.6794 0.59909 28.6271C1.39965 31.1432 2.83767 33.2515 4.70035 35.0813C5.15781 35.5219 5.64715 35.9306 6.15336 36.3234C6.30054 36.3234 6.31648 36.1922 6.35022 36.0947C6.41475 35.8861 6.46394 35.673 6.4974 35.4572L6.8255 33.0068L6.64364 10.0323Z" fill="#6CAC48"></path>
  <path d="M7.44709 37.041C7.4799 36.666 7.65989 36.3548 7.85581 36.0445C7.65895 35.9629 7.51271 35.8008 7.39834 35.6199C7.29973 35.4485 7.2181 35.268 7.15461 35.0808C6.92588 34.3946 6.87713 33.6747 6.81151 32.9735V32.5488C6.72996 32.6144 6.71308 33.1694 6.71308 33.2519C6.66538 33.993 6.56703 34.73 6.41873 35.4577C6.36998 35.752 6.33717 36.0454 6.15625 36.307C6.15625 36.3398 6.15625 36.3726 6.17219 36.4214C6.46654 37.2875 6.54716 38.1697 6.59684 39.0687V39.3968C6.59684 39.7886 6.58091 39.7061 6.90619 39.8373C7.03743 39.8861 7.18367 39.903 7.31491 40.0005C7.41334 40.0005 7.42928 39.9189 7.42928 39.8533L7.38053 39.3143V37.8106C7.3646 37.5481 7.41334 37.2875 7.44615 37.0419L7.44709 37.041Z" fill="#C2BFBF"></path>
  <path d="M24.9366 32V18H27.2966L32.0366 27.46L36.7566 18H39.1366V32H37.1366V21.5L32.7966 30.04H31.2566L26.9366 21.52V32H24.9366ZM46.5459 32.24C45.5993 32.24 44.7459 32.02 43.9859 31.58C43.2393 31.14 42.6459 30.5267 42.2059 29.74C41.7793 28.94 41.5659 28.02 41.5659 26.98C41.5659 25.9133 41.7859 24.9867 42.2259 24.2C42.6659 23.4 43.2659 22.78 44.0259 22.34C44.7859 21.9 45.6393 21.68 46.5859 21.68C47.5459 21.68 48.3993 21.9 49.1459 22.34C49.8926 22.78 50.4793 23.3933 50.9059 24.18C51.3459 24.9667 51.5659 25.8933 51.5659 26.96C51.5659 28.0267 51.3459 28.9533 50.9059 29.74C50.4793 30.5267 49.8859 31.14 49.1259 31.58C48.3659 32.02 47.5059 32.24 46.5459 32.24ZM46.5459 30.52C47.0926 30.52 47.5859 30.3867 48.0259 30.12C48.4793 29.8533 48.8393 29.46 49.1059 28.94C49.3859 28.4067 49.5259 27.7467 49.5259 26.96C49.5259 26.1733 49.3926 25.52 49.1259 25C48.8593 24.4667 48.4993 24.0667 48.0459 23.8C47.6059 23.5333 47.1193 23.4 46.5859 23.4C46.0526 23.4 45.5593 23.5333 45.1059 23.8C44.6526 24.0667 44.2859 24.4667 44.0059 25C43.7393 25.52 43.6059 26.1733 43.6059 26.96C43.6059 27.7467 43.7393 28.4067 44.0059 28.94C44.2859 29.46 44.6459 29.8533 45.0859 30.12C45.5393 30.3867 46.0259 30.52 46.5459 30.52ZM53.9186 32V21.92H55.7186L55.8386 23.64C56.1586 23.04 56.6119 22.5667 57.1986 22.22C57.7853 21.86 58.4586 21.68 59.2186 21.68C60.0186 21.68 60.7053 21.84 61.2786 22.16C61.8519 22.48 62.2986 22.9667 62.6186 23.62C62.9386 24.26 63.0986 25.0667 63.0986 26.04V32H61.0986V26.24C61.0986 25.3067 60.8919 24.6 60.4786 24.12C60.0653 23.64 59.4653 23.4 58.6786 23.4C58.1586 23.4 57.6919 23.5267 57.2786 23.78C56.8653 24.02 56.5319 24.38 56.2786 24.86C56.0386 25.34 55.9186 25.9267 55.9186 26.62V32H53.9186ZM69.7569 36.64C68.8369 36.64 68.0235 36.52 67.3169 36.28C66.6102 36.0533 66.0635 35.7 65.6769 35.22C65.2902 34.74 65.0969 34.1533 65.0969 33.46C65.0969 33.1 65.1769 32.7333 65.3369 32.36C65.4969 32 65.7569 31.6533 66.1169 31.32C66.4769 30.9867 66.9635 30.6867 67.5769 30.42L68.6969 31.32C68.0169 31.5733 67.5569 31.8733 67.3169 32.22C67.0902 32.58 66.9769 32.9267 66.9769 33.26C66.9769 33.66 67.0969 33.9933 67.3369 34.26C67.5769 34.5267 67.9035 34.7267 68.3169 34.86C68.7435 34.9933 69.2235 35.06 69.7569 35.06C70.2769 35.06 70.7302 34.9867 71.1169 34.84C71.5035 34.6933 71.8035 34.4867 72.0169 34.22C72.2302 33.9533 72.3369 33.64 72.3369 33.28C72.3369 32.8533 72.1769 32.4933 71.8569 32.2C71.5369 31.92 70.9235 31.7533 70.0169 31.7C69.2569 31.6467 68.6102 31.5733 68.0769 31.48C67.5569 31.3867 67.1102 31.2733 66.7369 31.14C66.3769 31.0067 66.0702 30.86 65.8169 30.7C65.5769 30.54 65.3702 30.3733 65.1969 30.2V29.74L67.1969 27.68L68.8169 28.24L66.6369 30.26L67.0569 29.36C67.2035 29.4533 67.3435 29.5467 67.4769 29.64C67.6102 29.72 67.7902 29.7933 68.0169 29.86C68.2435 29.9267 68.5502 29.9867 68.9369 30.04C69.3235 30.0933 69.8302 30.1467 70.4569 30.2C71.3635 30.2667 72.0902 30.4267 72.6369 30.68C73.1969 30.9333 73.6035 31.2733 73.8569 31.7C74.1102 32.1267 74.2369 32.6333 74.2369 33.22C74.2369 33.7933 74.0769 34.34 73.7569 34.86C73.4502 35.38 72.9635 35.8067 72.2969 36.14C71.6435 36.4733 70.7969 36.64 69.7569 36.64ZM69.7569 28.9C68.9035 28.9 68.1769 28.74 67.5769 28.42C66.9902 28.1 66.5369 27.6667 66.2169 27.12C65.9102 26.5733 65.7569 25.9667 65.7569 25.3C65.7569 24.62 65.9102 24.0133 66.2169 23.48C66.5369 22.9333 66.9969 22.5 67.5969 22.18C68.1969 21.8467 68.9169 21.68 69.7569 21.68C70.5969 21.68 71.3102 21.8467 71.8969 22.18C72.4969 22.5 72.9502 22.9333 73.2569 23.48C73.5769 24.0133 73.7369 24.62 73.7369 25.3C73.7369 25.9667 73.5769 26.5733 73.2569 27.12C72.9502 27.6667 72.4969 28.1 71.8969 28.42C71.3102 28.74 70.5969 28.9 69.7569 28.9ZM69.7569 27.3C70.4102 27.3 70.9302 27.1333 71.3169 26.8C71.7035 26.4533 71.8969 25.9533 71.8969 25.3C71.8969 24.6467 71.7035 24.1533 71.3169 23.82C70.9302 23.4733 70.4102 23.3 69.7569 23.3C69.1035 23.3 68.5769 23.4733 68.1769 23.82C67.7769 24.1533 67.5769 24.6467 67.5769 25.3C67.5769 25.9533 67.7769 26.4533 68.1769 26.8C68.5769 27.1333 69.1035 27.3 69.7569 27.3ZM71.3969 23.5L70.9169 21.92H75.0569V23.3L71.3969 23.5ZM81.2725 32.24C80.3258 32.24 79.4725 32.02 78.7125 31.58C77.9658 31.14 77.3725 30.5267 76.9325 29.74C76.5058 28.94 76.2925 28.02 76.2925 26.98C76.2925 25.9133 76.5125 24.9867 76.9525 24.2C77.3925 23.4 77.9925 22.78 78.7525 22.34C79.5125 21.9 80.3658 21.68 81.3125 21.68C82.2725 21.68 83.1258 21.9 83.8725 22.34C84.6192 22.78 85.2058 23.3933 85.6325 24.18C86.0725 24.9667 86.2925 25.8933 86.2925 26.96C86.2925 28.0267 86.0725 28.9533 85.6325 29.74C85.2058 30.5267 84.6125 31.14 83.8525 31.58C83.0925 32.02 82.2325 32.24 81.2725 32.24ZM81.2725 30.52C81.8192 30.52 82.3125 30.3867 82.7525 30.12C83.2058 29.8533 83.5658 29.46 83.8325 28.94C84.1125 28.4067 84.2525 27.7467 84.2525 26.96C84.2525 26.1733 84.1192 25.52 83.8525 25C83.5858 24.4667 83.2258 24.0667 82.7725 23.8C82.3325 23.5333 81.8458 23.4 81.3125 23.4C80.7792 23.4 80.2858 23.5333 79.8325 23.8C79.3792 24.0667 79.0125 24.4667 78.7325 25C78.4658 25.52 78.3325 26.1733 78.3325 26.96C78.3325 27.7467 78.4658 28.4067 78.7325 28.94C79.0125 29.46 79.3725 29.8533 79.8125 30.12C80.2658 30.3867 80.7525 30.52 81.2725 30.52ZM88.7452 32V18H93.0452C94.6718 18 96.0185 18.2867 97.0852 18.86C98.1518 19.4333 98.9385 20.2467 99.4452 21.3C99.9652 22.34 100.225 23.58 100.225 25.02C100.225 26.46 99.9652 27.7 99.4452 28.74C98.9385 29.78 98.1518 30.5867 97.0852 31.16C96.0318 31.72 94.6852 32 93.0452 32H88.7452ZM90.7452 30.32H92.9652C94.2585 30.32 95.2852 30.1067 96.0452 29.68C96.8052 29.2533 97.3452 28.6467 97.6652 27.86C97.9985 27.06 98.1652 26.1133 98.1652 25.02C98.1652 23.9133 97.9985 22.96 97.6652 22.16C97.3452 21.36 96.8052 20.7467 96.0452 20.32C95.2852 19.8933 94.2585 19.68 92.9652 19.68H90.7452V30.32ZM102.632 32V18H107.812C108.785 18 109.599 18.16 110.252 18.48C110.905 18.7867 111.392 19.2133 111.712 19.76C112.045 20.2933 112.212 20.9 112.212 21.58C112.212 22.2867 112.059 22.88 111.752 23.36C111.445 23.84 111.039 24.2133 110.532 24.48C110.039 24.7333 109.505 24.88 108.932 24.92L109.212 24.72C109.825 24.7333 110.385 24.9 110.892 25.22C111.399 25.5267 111.799 25.94 112.092 26.46C112.385 26.98 112.532 27.5533 112.532 28.18C112.532 28.9 112.359 29.5533 112.012 30.14C111.665 30.7133 111.152 31.1667 110.472 31.5C109.792 31.8333 108.959 32 107.972 32H102.632ZM104.632 30.34H107.712C108.592 30.34 109.272 30.14 109.752 29.74C110.245 29.3267 110.492 28.7467 110.492 28C110.492 27.2667 110.239 26.68 109.732 26.24C109.239 25.8 108.552 25.58 107.672 25.58H104.632V30.34ZM104.632 24.04H107.592C108.432 24.04 109.072 23.8467 109.512 23.46C109.952 23.06 110.172 22.5133 110.172 21.82C110.172 21.1533 109.952 20.6267 109.512 20.24C109.072 19.84 108.412 19.64 107.532 19.64H104.632V24.04Z" fill="black"></path>
</svg>
