<svg xmlns="http://www.w3.org/2000/svg" width="50" height="50" viewBox="0 0 50 50" fill="none"><rect x="0.5" y="0.5" width="49" height="49" rx="24.5" fill="white"/><rect x="0.5" y="0.5" width="49" height="49" rx="24.5" stroke="url(#paint0_linear_182_2826)"/><g clip-path="url(#clip0_182_2826)"><path d="M31.056 27.8245L29.9148 28.9657L27.9659 26.9978C29.8386 24.7656 30.237 21.8168 29.3665 19.32L26.7732 21.9133C26.7953 24.5206 24.6726 26.7993 21.9028 26.7993C20.2768 26.7992 18.8346 25.9982 17.9495 24.7702L20.8938 21.8259L22.9355 23.8678L30.5287 16.2746V17.9963H31.8603L31.8602 14.0015H27.8654V15.333L29.5871 15.3331L22.9355 21.9846L20.8938 19.9427L17.3039 23.5326C16.7151 21.8494 17.0734 19.8701 18.4587 18.4847C20.2337 16.7098 23.0217 16.5961 24.9259 18.1094L27.0788 15.9565C23.9776 13.2606 19.2719 13.3832 16.3147 16.3405C14.822 17.8331 14 19.8177 14 21.9286C14 26.2863 17.5452 29.8316 21.9029 29.8316C23.8028 29.8316 25.6002 29.1654 27.0288 27.9439L28.9733 29.9073L27.8275 31.0531L32.7713 35.9971L36 32.7684L31.056 27.8245Z" fill="#0a4891"/><path d="M24.6758 32.0039H14.0229V33.3355H24.6758V32.0039Z" fill="#0a4891"/><path d="M28.6709 34.667H20.6812V35.9986H28.6709V34.667Z" fill="#0a4891"/></g><defs><linearGradient id="paint0_linear_182_2826" x1="25" y1="0" x2="25" y2="50" gradientUnits="userSpaceOnUse"><stop stop-color="#0a4891"/><stop offset="1" stop-color="white"/></linearGradient><clipPath id="clip0_182_2826"><rect width="22" height="22" fill="white" transform="matrix(-1 0 0 1 36 14)"/></clipPath></defs></svg>